# xmcd
#
# Track frame offsets:
#	150
#	12650
#	25225
#	35600
#	49387
#	62662
#	74700
#	87112
#	98112
#	110212
#	121487
#	131837
#	144287
#	158862
#	170212
#	185375
#	200587
#	214662
#	228812
#	242537
#	255525
#	267600
#
# Disc length: 3780 seconds
#
# Revision: 1
# Processed by: cddbd v1.5.1PL0 Copyright (c) Steve Scherf et al.
# Submitted via: EasyCDDAExtractor 6.5.0.3
#
DISCID=4e0ec216
DTITLE=Jerry Vale - You Don't Have To Say You Love Me/I Don't Know How To Love
DTITLE=Her
DYEAR=1967
DGENRE=Easy Listening
TTITLE0=You Don't Have To Say You Love Me (Io Che Non Vivo Senza Te)
TTITLE1=Lover's Roulette
TTITLE2=Eternally
TTITLE3=Yellow Days
TTITLE4=Release Me
TTITLE5=What A Wonderful World
TTITLE6=There's A Kind Of Hush (All Over The World)
TTITLE7=To Each His Own
TTITLE8=Ebb Tide
TTITLE9=Till There Was You
TTITLE10=You Have To Believe In Someone
TTITLE11=Which Way You Goin' Girl
TTITLE12=My Woman, My Woman, My Wife
TTITLE13=Help Me Make It Through The Night
TTITLE14=Rainy Days And Mondays
TTITLE15=For The Good Times
TTITLE16=It's Impossible
TTITLE17=Theme From Love Story (Where Do I Begin)
TTITLE18=Moonlight
TTITLE19=If
TTITLE20=For All We Know
TTITLE21=I Don't Know How To Love Her
EXTD=
EXTT0=
EXTT1=
EXTT2=
EXTT3=
EXTT4=
EXTT5=
EXTT6=
EXTT7=
EXTT8=
EXTT9=
EXTT10=
EXTT11=
EXTT12=
EXTT13=
EXTT14=
EXTT15=
EXTT16=
EXTT17=
EXTT18=
EXTT19=
EXTT20=
EXTT21=
PLAYORDER=
